# xmcd
#
# Track frame offsets:
#	150
#	15062
#	27250
#	40309
#	53897
#	66792
#	89593
#	97113
#	114081
#	134098
#	150878
#	168694
#	183589
#	197155
#
# Disc length: 2847 seconds
#
# Revision: 1
# Processed by: cddbd v1.5.2PL0 Copyright (c) Steve Scherf et al.
# Submitted via: audiograbber 1.83.01
#
DISCID=b70b1d0e
DTITLE=Daniel Knox - Evryman For Himself
DYEAR=2011
DGENRE=
TTITLE0=Ghostsong
TTITLE1=Make Enemies
TTITLE2=Etc...
TTITLE3=Slowly
TTITLE4=Evryman For Himself
TTITLE5=Fightscene
TTITLE6=#2
TTITLE7=Debt Collector
TTITLE8=Chores
TTITLE9=Get Off
TTITLE10=Yet Another One For You
TTITLE11=Smartass
TTITLE12=You Win Some, You Tie Some
TTITLE13=Armageddonsong
EXTD=
EXTT0=
EXTT1=
EXTT2=
EXTT3=
EXTT4=
EXTT5=
EXTT6=
EXTT7=
EXTT8=
EXTT9=
EXTT10=
EXTT11=
EXTT12=
EXTT13=
PLAYORDER=
